<?xml version="1.0" encoding="UTF-8" standalone="no"?>
<!-- Created with Inkscape (http://www.inkscape.org/) -->

<svg xmlns:dc="http://purl.org/dc/elements/1.1/" 
   xmlns:cc="http://creativecommons.org/ns#" 
   xmlns:rdf="http://www.w3.org/1999/02/22-rdf-syntax-ns#" 
   xmlns:svg="http://www.w3.org/2000/svg" 
   xmlns="http://www.w3.org/2000/svg" 
   xmlns:sodipodi="http://sodipodi.sourceforge.net/DTD/sodipodi-0.dtd" 
   xmlns:inkscape="http://www.inkscape.org/namespaces/inkscape" width="297mm" height="210mm" viewBox="0 0 297 210" version="1.1" id="svg9771" inkscape:version="0.92.4 (5da689c313, 2019-01-14)" sodipodi:docname="icicle-theme.svg">
   <g inkscape:label="Layer 1" inkscape:groupmode="layer" id="layer1" transform="translate(0,-87)">
      <path style="fill:none;stroke:#000000;stroke-width:1px;stroke-linecap:butt;stroke-linejoin:miter;stroke-opacity:1" d="m 85.996932,167.84356 9.34049,-0.96625 4.187116,27.37729 -12.56135,3.54295 z" id="path9773" inkscape:connector-curvature="0" />
      <path style="fill:none;stroke:#000000;stroke-width:1px;stroke-linecap:butt;stroke-linejoin:miter;stroke-opacity:1" d="m 86.963188,197.79755 -32.530674,14.49386 -29.953987,-6.7638 -2.898773,-21.25767 34.785277,-34.1411 29.631899,17.71472 z" id="path9777" inkscape:connector-curvature="0" />
      <path style="fill:none;stroke:#000000;stroke-width:1px;stroke-linecap:butt;stroke-linejoin:miter;stroke-opacity:1" d="M 86.963188,197.79755 119.81595,213.25767 132.3773,202.62884 99.524536,194.2546 Z" id="path9779" inkscape:connector-curvature="0" sodipodi:nodetypes="ccccc" />
      <path style="fill:none;stroke:#000000;stroke-width:1px;stroke-linecap:butt;stroke-linejoin:miter;stroke-opacity:1" d="m 95.33742,166.87731 10.30675,-11.5951 -11.273006,-14.81595 -26.733129,-4.83129 -11.273004,14.49387 29.631899,17.71472 z" id="path9781" inkscape:connector-curvature="0" />
      <path style="fill:none;stroke:#000000;stroke-width:1px;stroke-linecap:butt;stroke-linejoin:miter;stroke-opacity:1" d="m 105.64417,155.28221 28.02147,-9.66257 24.80062,9.0184 12.23926,28.98773 -16.10429,23.19019 -22.22393,-4.18712 -32.852762,-8.37424 -4.187118,-27.37729 z" id="path9785" inkscape:connector-curvature="0" sodipodi:nodetypes="ccccccccc" />
      <path style="fill:none;stroke:#000000;stroke-width:1px;stroke-linecap:butt;stroke-linejoin:miter;stroke-opacity:1" d="m 119.81595,213.25767 11.59509,10.95092 23.51227,0.96627 4.5092,-6.76381 -4.83128,-11.59509 -22.22393,-4.18712 z" id="path9787" inkscape:connector-curvature="0" sodipodi:nodetypes="ccccccc" />
      <path style="fill:none;stroke:#000000;stroke-width:1px;stroke-linecap:butt;stroke-linejoin:miter;stroke-opacity:1" d="m 159.43251,218.41105 20.6135,-20.6135 -9.34049,-14.17178 -16.10429,23.19019 z" id="path9789" inkscape:connector-curvature="0" />
      <path style="fill:none;stroke:#000000;stroke-width:1px;stroke-linecap:butt;stroke-linejoin:miter;stroke-opacity:1" d="m 54.432514,212.29141 0.966258,15.78221 40.904909,9.34049 15.782209,-27.69938 c 4.94423,2.32669 -14.171744,-6.76379 -25.122702,-11.91718 z" id="path9791" inkscape:connector-curvature="0" sodipodi:nodetypes="cccccc" />
      <path style="fill:none;stroke:#000000;stroke-width:1px;stroke-linecap:butt;stroke-linejoin:miter;stroke-opacity:1" d="m 112.08589,209.71473 7.73006,3.54294 11.59509,10.95092 3.22086,24.80061 -30.27607,7.0859 -8.052149,-18.68099 z" id="path9793" inkscape:connector-curvature="0" />
      <path style="fill:none;stroke:#000000;stroke-width:1px;stroke-linecap:butt;stroke-linejoin:miter;stroke-opacity:1" d="m 154.92331,225.17486 26.73313,24.8006 -30.92025,19.96933 -16.10429,-20.93559 -3.22086,-24.80061 z" id="path9795" inkscape:connector-curvature="0" />
      <path style="fill:none;stroke:#000000;stroke-width:1px;stroke-linecap:butt;stroke-linejoin:miter;stroke-opacity:1" d="m 159.43251,218.41105 20.6135,4.83128 28.98773,15.78221 1.93251,20.6135 -29.30981,-9.66258 -26.73313,-24.8006 z" id="path9797" inkscape:connector-curvature="0" />
      <path style="fill:none;stroke:#000000;stroke-width:1px;stroke-linecap:butt;stroke-linejoin:miter;stroke-opacity:1" d="m 24.478527,205.52761 -20.6134964,31.8865 14.4938644,32.85276 41.871166,4.50921 3.542943,-14.49387 -8.374232,-32.20859 -0.966258,-15.78221 z" id="path9799" inkscape:connector-curvature="0" />
      <path style="fill:none;stroke:#000000;stroke-width:1px;stroke-linecap:butt;stroke-linejoin:miter;stroke-opacity:1" d="M 55.398772,228.07362 59.585888,244.5 104.35583,256.0951 96.303681,237.41411 Z" id="path9801" inkscape:connector-curvature="0" />
      <path style="fill:none;stroke:#000000;stroke-width:1px;stroke-linecap:butt;stroke-linejoin:miter;stroke-opacity:1" d="m 63.773004,260.28221 36.07362,1.93252 4.509206,-6.11963 L 59.585888,244.5 Z" id="path9803" inkscape:connector-curvature="0" />
      <path style="fill:none;stroke:#000000;stroke-width:1px;stroke-linecap:butt;stroke-linejoin:miter;stroke-opacity:1" d="m 99.846624,262.21473 -1.932514,14.81595 6.44172,14.17178 38.6503,2.2546 12.56135,-13.52761 -4.83129,-9.98466 -16.10429,-20.93559 -30.27607,7.0859 z" id="path9805" inkscape:connector-curvature="0" />
      <path style="fill:none;stroke:#000000;stroke-width:1px;stroke-linecap:butt;stroke-linejoin:miter;stroke-opacity:1" d="m 63.773004,260.28221 -3.542943,14.49387 13.527606,14.81595 17.39264,-4.50921 6.763803,-8.05214 1.932514,-14.81595 z" id="path9807" inkscape:connector-curvature="0" />
      <path style="fill:none;stroke:#000000;stroke-width:1px;stroke-linecap:butt;stroke-linejoin:miter;stroke-opacity:1" d="m 91.150307,285.08282 16.748463,18.3589 -3.54294,-12.23926 -6.44172,-14.17178 z" id="path9809" inkscape:connector-curvature="0" />
      <path style="fill:none;stroke:#000000;stroke-width:1px;stroke-linecap:butt;stroke-linejoin:miter;stroke-opacity:1" d="m 73.757667,289.59203 -14.493864,14.81595 v 8.37423 l 13.205521,10.95092 25.444786,-4.83129 9.98466,-15.46012 -16.748463,-18.3589 z" id="path9811" inkscape:connector-curvature="0" />
      <path style="fill:none;stroke:#000000;stroke-width:1px;stroke-linecap:butt;stroke-linejoin:miter;stroke-opacity:1" d="m 37.039878,272.52148 -5.475462,21.57975 10.306748,15.46012 17.392639,-5.15337 14.493864,-14.81595 -13.527606,-14.81595 z" id="path9813" inkscape:connector-curvature="0" />
      <path style="fill:none;stroke:#000000;stroke-width:1px;stroke-linecap:butt;stroke-linejoin:miter;stroke-opacity:1" d="m 107.89877,303.44172 16.1043,18.68098 28.34355,4.18712 -0.96625,-22.54601 -8.37424,-10.30675 -38.6503,-2.2546 z" id="path9815" inkscape:connector-curvature="0" />
      <path style="fill:none;stroke:#000000;stroke-width:1px;stroke-linecap:butt;stroke-linejoin:miter;stroke-opacity:1" d="m 155.56748,279.92945 17.07056,3.86503 14.17177,24.47853 -18.03681,4.83129 -17.39263,-9.34049 -8.37424,-10.30675 z" id="path9817" inkscape:connector-curvature="0" />
      <path style="fill:none;stroke:#000000;stroke-width:1px;stroke-linecap:butt;stroke-linejoin:miter;stroke-opacity:1" d="m 155.56748,279.92945 35.10736,-27.05522 -9.0184,-2.89877 -30.92025,19.96933 z" id="path9819" inkscape:connector-curvature="0" />
      <path style="fill:none;stroke:#000000;stroke-width:1px;stroke-linecap:butt;stroke-linejoin:miter;stroke-opacity:1" d="m 172.63804,283.79448 21.90184,-2.57669 31.24233,21.90184 -12.88344,12.88344 -26.08896,-7.73006 z" id="path9821" inkscape:connector-curvature="0" />
      <path style="fill:none;stroke:#000000;stroke-width:1px;stroke-linecap:butt;stroke-linejoin:miter;stroke-opacity:1" d="m 194.53988,281.21779 -1.93252,-11.59509 -10.62883,-9.98466 -26.41105,20.29141 17.07056,3.86503 z" id="path9823" inkscape:connector-curvature="0" />
      <path style="fill:none;stroke:#000000;stroke-width:1px;stroke-linecap:butt;stroke-linejoin:miter;stroke-opacity:1" d="m 190.67484,252.87423 -8.69631,6.76381 10.62883,9.98466 18.35889,-9.98466 z" id="path9825" inkscape:connector-curvature="0" />
      <path style="fill:none;stroke:#000000;stroke-width:1px;stroke-linecap:butt;stroke-linejoin:miter;stroke-opacity:1" d="m 210.96625,259.63804 26.73313,2.89877 13.8497,18.03681 -9.01841,19.64724 -16.74846,2.89877 -31.24233,-21.90184 -1.93252,-11.59509 z" id="path9827" inkscape:connector-curvature="0" />
      <path style="fill:none;stroke:#000000;stroke-width:1px;stroke-linecap:butt;stroke-linejoin:miter;stroke-opacity:1" d="M 31.564416,294.10123 9.0184048,305.37424 -15.782208,297 v -17.71472 l 19.9693244,-9.98466 14.1717786,0.96625 18.680983,2.25461 z" id="path9829" inkscape:connector-curvature="0" />
      <path style="fill:none;stroke:#000000;stroke-width:1px;stroke-linecap:butt;stroke-linejoin:miter;stroke-opacity:1" d="m 4.1871164,269.30062 -9.0184046,-28.34356 8.6963188,-3.54295 14.4938644,32.85276 z" id="path9831" inkscape:connector-curvature="0" />
      <path style="fill:none;stroke:#000000;stroke-width:1px;stroke-linecap:butt;stroke-linejoin:miter;stroke-opacity:1" d="m -4.8312882,240.95706 -10.9509198,-11.27301 0.322085,-39.93865 25.1226996,-13.5276 11.9171774,8.05214 2.898773,21.25767 -20.6134964,31.8865 z" id="path9833" inkscape:connector-curvature="0" />
      <path style="fill:none;stroke:#000000;stroke-width:1px;stroke-linecap:butt;stroke-linejoin:miter;stroke-opacity:1" d="m 9.6625766,176.2178 33.8190184,-27.05522 12.883436,0.96626 -34.785277,34.1411 z" id="path9835" inkscape:connector-curvature="0" />
      <path style="fill:none;stroke:#000000;stroke-width:1px;stroke-linecap:butt;stroke-linejoin:miter;stroke-opacity:1" d="m 43.481595,149.16258 -17.070552,-8.37423 0.322086,-20.93559 19.647239,-8.69631 26.411041,6.11963 -5.153374,18.35889 -11.273004,14.49387 z" id="path9837" inkscape:connector-curvature="0" />
      <path style="fill:none;stroke:#000000;stroke-width:1px;stroke-linecap:butt;stroke-linejoin:miter;stroke-opacity:1" d="m 26.411043,140.78835 -39.294478,5.79754 2.254601,22.8681 20.2914106,6.76381 33.8190184,-27.05522 z" id="path9839" inkscape:connector-curvature="0" />
      <path style="fill:none;stroke:#000000;stroke-width:1px;stroke-linecap:butt;stroke-linejoin:miter;stroke-opacity:1" d="m 180.04601,223.24233 18.3589,-27.3773 -2.57669,-13.84969 -15.78221,15.78221 -20.6135,20.6135 z" id="path9843" inkscape:connector-curvature="0" />
      <path style="fill:none;stroke:#000000;stroke-width:1px;stroke-linecap:butt;stroke-linejoin:miter;stroke-opacity:1" d="m 170.70552,183.62577 13.52761,-8.05215 11.59509,6.44172 -15.78221,15.78221 z" id="path9845" inkscape:connector-curvature="0" />
      <path style="fill:none;stroke:#000000;stroke-width:1px;stroke-linecap:butt;stroke-linejoin:miter;stroke-opacity:1" d="m 184.23313,175.57362 -17.71473,-24.47853 -8.05214,3.54295 12.23926,28.98773 z" id="path9847" inkscape:connector-curvature="0" />
      <path style="fill:none;stroke:#000000;stroke-width:1px;stroke-linecap:butt;stroke-linejoin:miter;stroke-opacity:1" d="m 198.40491,195.86503 33.49693,-1.93251 13.84969,25.76687 -8.37423,15.46012 -28.34356,3.86503 -28.98773,-15.78221 z" id="path9849" inkscape:connector-curvature="0" />
      <path style="fill:none;stroke:#000000;stroke-width:1px;stroke-linecap:butt;stroke-linejoin:miter;stroke-opacity:1" d="m 237.3773,235.15951 11.59509,10.30675 -11.27301,17.07055 -26.73313,-2.89877 -1.93251,-20.6135 z" id="path9851" inkscape:connector-curvature="0" />
      <path style="fill:none;stroke:#000000;stroke-width:1px;stroke-linecap:butt;stroke-linejoin:miter;stroke-opacity:1" d="m 94.371164,140.46626 9.340486,-11.91718 28.66565,2.57669 1.28834,14.49387 -28.02147,9.66257 z" id="path9853" inkscape:connector-curvature="0" />
      <path style="fill:none;stroke:#000000;stroke-width:1px;stroke-linecap:butt;stroke-linejoin:miter;stroke-opacity:1" d="m 72.791409,117.27608 24.800615,-5.47546 6.119626,16.74846 -9.340486,11.91718 -26.733129,-4.83129 z" id="path9855" inkscape:connector-curvature="0" />
      <path style="fill:none;stroke:#000000;stroke-width:1px;stroke-linecap:butt;stroke-linejoin:miter;stroke-opacity:1" d="m -15.782208,229.68405 -19.003068,0.96626 -0.64417,31.8865 19.647238,16.74847 19.9693244,-9.98466 -9.0184046,-28.34356 z" id="path9857" inkscape:connector-curvature="0" />
      <path style="fill:none;stroke:#000000;stroke-width:1px;stroke-linecap:butt;stroke-linejoin:miter;stroke-opacity:1" d="m 9.0184046,305.37424 -2.5766869,18.68098 23.5122693,8.69631 11.917177,-13.20552 v -9.98466 L 31.564416,294.10123 Z" id="path9859" inkscape:connector-curvature="0" />
      <path style="fill:none;stroke:#000000;stroke-width:1px;stroke-linecap:butt;stroke-linejoin:miter;stroke-opacity:1" d="m 97.592022,111.80062 3.220858,-21.901842 32.20859,-9.984663 23.19018,25.444785 -11.273,20.29141 -12.56135,5.47546 -28.66565,-2.57669 z" id="path9861" inkscape:connector-curvature="0" />
      <path style="fill:none;stroke:#000000;stroke-width:1px;stroke-linecap:butt;stroke-linejoin:miter;stroke-opacity:1" d="m 144.93865,125.65031 2.57668,14.17178 19.00307,11.273 -8.05214,3.54295 -24.80062,-9.0184 -1.28834,-14.49387 z" id="path9863" inkscape:connector-curvature="0" />
      <path style="fill:none;stroke:#000000;stroke-width:1px;stroke-linecap:butt;stroke-linejoin:miter;stroke-opacity:1" d="m 195.82822,182.01534 19.64724,-12.88344 19.96932,9.98467 -3.54294,14.81595 -33.49693,1.93251 z" id="path9865" inkscape:connector-curvature="0" />
      <path style="fill:none;stroke:#000000;stroke-width:1px;stroke-linecap:butt;stroke-linejoin:miter;stroke-opacity:1" d="m 215.47546,169.1319 9.0184,-32.53067 -26.41104,-17.07055 -31.56442,31.56441 17.71473,24.47853 11.59509,6.44172 z" id="path9867" inkscape:connector-curvature="0" />
      <path style="fill:none;stroke:#000000;stroke-width:1px;stroke-linecap:butt;stroke-linejoin:miter;stroke-opacity:1" d="m 224.49386,136.60123 43.15951,-10.30675 19.96932,11.27301 5.15337,22.22392 -22.54599,32.53068 -34.78529,-13.20552 -19.96932,-9.98467 z" id="path9869" inkscape:connector-curvature="0" />
      <path style="fill:none;stroke:#000000;stroke-width:1px;stroke-linecap:butt;stroke-linejoin:miter;stroke-opacity:1" d="m 156.21165,105.3589 21.25767,-5.47546 22.54601,9.34049 -1.93251,10.30675 -31.56442,31.56441 -19.00307,-11.273 -2.57668,-14.17178 z" id="path9871" inkscape:connector-curvature="0" />
      <path style="fill:none;stroke:#000000;stroke-width:1px;stroke-linecap:butt;stroke-linejoin:miter;stroke-opacity:1" d="m 200.01533,109.22393 26.41105,-16.748465 37.68405,11.273005 3.54294,22.54601 -43.15951,10.30675 -26.41104,-17.07055 z" id="path9873" inkscape:connector-curvature="0" />
      <path style="fill:none;stroke:#000000;stroke-width:1px;stroke-linecap:butt;stroke-linejoin:miter;stroke-opacity:1" d="m 177.46932,99.88344 3.22086,-16.42638 28.98773,-10.95092 16.74847,19.969325 -26.41105,16.748465 z" id="path9875" inkscape:connector-curvature="0" />
      <path style="fill:none;stroke:#000000;stroke-width:1px;stroke-linecap:butt;stroke-linejoin:miter;stroke-opacity:1" d="m 133.02147,79.914115 15.46012,-10.95092 24.80062,2.254601 7.40797,12.239264 -3.22086,16.42638 -21.25767,5.47546 z" id="path9877" inkscape:connector-curvature="0" />
      <path style="fill:none;stroke:#000000;stroke-width:1px;stroke-linecap:butt;stroke-linejoin:miter;stroke-opacity:1" d="M 100.81288,89.898778 80.843558,76.371171 49.27914,94.730066 l -2.898772,16.426384 26.411041,6.11963 24.800613,-5.47546 z" id="path9879" inkscape:connector-curvature="0" />
      <path style="fill:none;stroke:#000000;stroke-width:1px;stroke-linecap:butt;stroke-linejoin:miter;stroke-opacity:1" d="m 80.843558,76.371171 25.766872,-7.407976 19.00306,5.797546 7.40798,5.153374 -32.20859,9.984663 z" id="path9881" inkscape:connector-curvature="0" />
      <path style="fill:none;stroke:#000000;stroke-width:1px;stroke-linecap:butt;stroke-linejoin:miter;stroke-opacity:1" d="m 26.733129,119.85276 -33.4969325,-11.91717 -9.3404905,16.74846 3.220859,21.90184 39.294478,-5.79754 z" id="path9883" inkscape:connector-curvature="0" />
      <path style="fill:none;stroke:#000000;stroke-width:1px;stroke-linecap:butt;stroke-linejoin:miter;stroke-opacity:1" d="m 49.27914,94.730066 -20.935582,7.407974 -1.610429,17.71472 19.647239,-8.69631 z" id="path9885" inkscape:connector-curvature="0" />
      <path style="fill:none;stroke:#000000;stroke-width:1px;stroke-linecap:butt;stroke-linejoin:miter;stroke-opacity:1" d="M 28.343558,102.13804 19.969325,81.202459 27.3773,62.843563 70.858895,67.03068 80.843558,76.371171 49.27914,94.730066 Z" id="path9887" inkscape:connector-curvature="0" />
      <path style="fill:none;stroke:#000000;stroke-width:1px;stroke-linecap:butt;stroke-linejoin:miter;stroke-opacity:1" d="M -6.7638035,107.93559 -8.052147,82.812888 19.969325,81.202459 28.343558,102.13804 26.733129,119.85276 Z" id="path9889" inkscape:connector-curvature="0" />
      <path style="fill:none;stroke:#000000;stroke-width:1px;stroke-linecap:butt;stroke-linejoin:miter;stroke-opacity:1" d="m -10.628834,169.45399 -9.340491,8.05215 4.509202,12.23926 25.1226996,-13.5276 z" id="path9891" inkscape:connector-curvature="0" />
      <path style="fill:none;stroke:#000000;stroke-width:1px;stroke-linecap:butt;stroke-linejoin:miter;stroke-opacity:1" d="M 264.11043,103.74847 283.1135,81.524545 265.39878,59.622706 209.67791,72.50614 226.42638,92.475465 Z" id="path9893" inkscape:connector-curvature="0" />
      <path style="fill:none;stroke:#000000;stroke-width:1px;stroke-linecap:butt;stroke-linejoin:miter;stroke-opacity:1" d="m 283.1135,81.524545 26.08895,0.966257 16.10429,30.276078 -19.64724,25.76687 -18.03681,-0.96626 -19.96932,-11.27301 -3.54294,-22.54601 z" id="path9895" inkscape:connector-curvature="0" />
      <path style="fill:none;stroke:#000000;stroke-width:1px;stroke-linecap:butt;stroke-linejoin:miter;stroke-opacity:1" d="m 245.75153,219.69939 28.66565,-8.05215 -4.18711,-19.32515 -34.78529,-13.20552 -3.54294,14.81595 z" id="path9897" inkscape:connector-curvature="0" />
      <path style="fill:none;stroke:#000000;stroke-width:1px;stroke-linecap:butt;stroke-linejoin:miter;stroke-opacity:1" d="m 292.77606,159.79141 21.25768,9.34049 19.00307,-8.69631 -10.62885,-16.74847 -16.74846,-5.15337 -18.03681,-0.96626 z" id="path9899" inkscape:connector-curvature="0" />
      <path style="fill:none;stroke:#000000;stroke-width:1px;stroke-linecap:butt;stroke-linejoin:miter;stroke-opacity:1" d="m 292.77606,159.79141 -22.54599,32.53068 18.68096,-5.79755 25.12271,-17.39264 z" id="path9901" inkscape:connector-curvature="0" />
      <path style="fill:none;stroke:#000000;stroke-width:1px;stroke-linecap:butt;stroke-linejoin:miter;stroke-opacity:1" d="m 251.54908,280.57362 32.53068,-2.2546 17.39262,18.68098 -26.41102,19.64724 -25.12271,-2.89877 -7.40798,-13.52761 z" id="path9903" inkscape:connector-curvature="0" />
      <path style="fill:none;stroke:#000000;stroke-width:1px;stroke-linecap:butt;stroke-linejoin:miter;stroke-opacity:1" d="m 248.97239,245.46626 31.24234,-4.18712 23.19017,19.96933 -19.32514,17.07055 -32.53068,2.2546 -13.8497,-18.03681 z" id="path9905" inkscape:connector-curvature="0" />
      <path style="fill:none;stroke:#000000;stroke-width:1px;stroke-linecap:butt;stroke-linejoin:miter;stroke-opacity:1" d="m 303.4049,261.24847 17.39265,24.15644 -9.0184,9.01841 L 301.47238,297 284.07976,278.31902 Z" id="path9907" inkscape:connector-curvature="0" />
      <path style="fill:none;stroke:#000000;stroke-width:1px;stroke-linecap:butt;stroke-linejoin:miter;stroke-opacity:1" d="m 274.41718,211.64724 10.30674,9.34049 -47.34662,14.17178 8.37423,-15.46012 z" id="path9909" inkscape:connector-curvature="0" />
      <path style="fill:none;stroke:#000000;stroke-width:1px;stroke-linecap:butt;stroke-linejoin:miter;stroke-opacity:1" d="m 284.72392,220.98773 -4.50919,20.29141 -31.24234,4.18712 -11.59509,-10.30675 z" id="path9911" inkscape:connector-curvature="0" />
      <path style="fill:none;stroke:#000000;stroke-width:1px;stroke-linecap:butt;stroke-linejoin:miter;stroke-opacity:1" d="m 284.72392,220.98773 19.64724,-3.86503 17.39265,13.84969 v 16.74847 l -18.35891,13.52761 -23.19017,-19.96933 z" id="path9913" inkscape:connector-curvature="0" />
      <path style="fill:none;stroke:#000000;stroke-width:1px;stroke-linecap:butt;stroke-linejoin:miter;stroke-opacity:1" d="m 312.74541,192.64418 -8.37425,24.47852 -19.64724,3.86503 -10.30674,-9.34049 -4.18711,-19.32515 18.68096,-5.79755 z" id="path9915" inkscape:connector-curvature="0" />
      <path style="fill:none;stroke:#000000;stroke-width:1px;stroke-linecap:butt;stroke-linejoin:miter;stroke-opacity:1" d="m 312.74541,192.64418 3.22085,-16.42638 -1.93252,-7.0859 -25.12271,17.39264 z" id="path9917" inkscape:connector-curvature="0" />
   </g>
</svg>
