<?xml version="1.0" encoding="UTF-8" standalone="no"?>
<svg xmlns:dc="http://purl.org/dc/elements/1.1/" 
   xmlns:cc="http://creativecommons.org/ns#" 
   xmlns:rdf="http://www.w3.org/1999/02/22-rdf-syntax-ns#" 
   xmlns:svg="http://www.w3.org/2000/svg" 
   xmlns="http://www.w3.org/2000/svg" 
   xmlns:sodipodi="http://sodipodi.sourceforge.net/DTD/sodipodi-0.dtd" 
   xmlns:inkscape="http://www.inkscape.org/namespaces/inkscape" width="297mm" height="210mm" viewBox="0 0 297 210" version="1.1" id="svg2625" sodipodi:docname="volcano-theme.svg" inkscape:version="0.92.4 (5da689c313, 2019-01-14)">

   <g inkscape:label="Layer 1" inkscape:groupmode="layer" id="layer1" transform="translate(0,-87)">
      <path d="M 49.182369,266.92958 69.282031,252 56.291651,199.5 -21.650635,154.5 4.4978602,52.316803 77.942286,122 112.5833,97.000005 l 4.33013,-27.5 60.62178,10 4.33012,37.500005 30.31089,22.5 34.64102,-20.00001 12.99038,-37.499995 47.63138,2.5 8.66027,49.999995 -34.64103,15 -34.641,-30" id="path2429" inkscape:connector-curvature="0" sodipodi:nodetypes="ccccccccccccccccc" />
      <path d="M 181.86533,117.00001 142.89419,119.5 112.5833,97.000005" id="path2431" inkscape:connector-curvature="0" />
      <path d="m 56.291651,199.5 25.98076,-50 -4.330125,-27.5" id="path2433" inkscape:connector-curvature="0" />
      <path d="M 49.182369,266.92958 17.320508,242 25.980762,182" id="path2435" inkscape:connector-curvature="0" sodipodi:nodetypes="ccc" />
      <path d="m 82.272411,149.5 25.980759,45 -4.33012,42.5 -34.641019,15 v 0 l 12.99038,7.5 v 45" id="path2439" inkscape:connector-curvature="0" sodipodi:nodetypes="ccccccc" />
      <path d="M 82.272411,259.5 112.5833,242 l -8.66025,-5" id="path2441" inkscape:connector-curvature="0" sodipodi:nodetypes="ccc" />
      <path d="m 95.262794,172 56.291646,-2.5 4.33013,-32.49999 L 142.89419,119.5" id="path2443" inkscape:connector-curvature="0" />
      <path d="m 155.88457,137.00001 21.65064,-7.50001 7.4071,-10.20886" id="path2447" inkscape:connector-curvature="0" sodipodi:nodetypes="ccc" />
      <path d="M 181.86533,302 160.2147,254.5 142.89419,239.5 112.5833,242" id="path2449" inkscape:connector-curvature="0" />
      <path d="m 108.25317,194.5 43.30127,-10 17.32051,30 -25.98076,25" id="path2451" inkscape:connector-curvature="0" />
      <path d="m 151.55444,184.5 v -15" id="path2453" inkscape:connector-curvature="0" />
      <path d="M 212.17622,139.50001 190.52559,142 177.53521,129.5" id="path2455" inkscape:connector-curvature="0" />
      <path d="m 190.52559,142 12.99038,37.5 -12.99038,27.5 -21.65064,7.5" id="path2457" inkscape:connector-curvature="0" />
      <path d="m 160.2147,254.5 8.66025,-30 v -10" id="path2459" inkscape:connector-curvature="0" />
      <path d="m 168.87495,224.5 30.31089,12.5 21.65063,-12.5 -8.66025,-15 -21.65063,-2.5" id="path2461" inkscape:connector-curvature="0" />
      <path d="m 199.18584,237 4.33013,27.5 -17.32051,10 -16.06736,1.67087" id="path2463" inkscape:connector-curvature="0" sodipodi:nodetypes="cccc" />
      <path d="m 203.51597,179.5 h 8.66025 v -39.99999" id="path2465" inkscape:connector-curvature="0" />
      <path d="m 212.17622,179.5 8.66025,10 -8.66025,20" id="path2467" inkscape:connector-curvature="0" />
      <path d="m 220.83647,189.5 38.97115,12.5 17.32051,-20 4.33011,-32.5" id="path2469" inkscape:connector-curvature="0" />
      <path d="m 186.19546,274.5 v 30" id="path2471" inkscape:connector-curvature="0" />
      <path d="m 203.51597,264.5 34.64101,10 12.99039,27.5" id="path2473" inkscape:connector-curvature="0" />
      <path d="m 220.83647,224.5 21.65064,17.5 -4.33013,32.5 12.99039,2.5 21.65064,22.5" id="path2475" inkscape:connector-curvature="0" />
      <path d="m 242.48711,242 21.65064,-2.5 v 20 L 251.14737,277" id="path2477" inkscape:connector-curvature="0" />
      <path d="M 264.13775,259.5 303.10889,257 V 227 L 264.13775,239.5 277.12813,217 259.80762,202" id="path2481" inkscape:connector-curvature="0" />
      <path d="m 277.12813,217 h 25.98076 l 8.66026,-35 h -34.64102" id="path2483" inkscape:connector-curvature="0" />
      <path d="M 21.706546,302.63919 -7.5574902,276.36332 -4.3301269,239.5 17.320508,242" id="path2485" inkscape:connector-curvature="0" sodipodi:nodetypes="cccc" />
      <path d="m 21.650635,209.5 -34.641016,-30 -8.660254,-25" id="path2487" inkscape:connector-curvature="0" />
      <path d="m -4.3301269,239.5 -25.9807621,-25 17.320508,-35" id="path2489" inkscape:connector-curvature="0" />
      <path d="M 77.942286,122 43.301269,132 -8.660254,97.000005" id="path2491" inkscape:connector-curvature="0" />
      <path d="M 25.980762,182 12.990381,149.5 43.301269,132" id="path2493" inkscape:connector-curvature="0" />
      <path d="m 12.990381,149.5 -34.641016,-5" id="path2495" inkscape:connector-curvature="0" />
      <path d="M 49.182369,266.92958 37.223337,302.4284" id="path9763" inkscape:connector-curvature="0" />
   </g>
</svg>
